<svg class="opacity-70 mb-40 lg:mb-0" version="1.1" xmlns="http://www.w3.org/2000/svg"
    xmlns:xlink="http://www.w3.org/1999/xlink" x="0px" y="0px" viewBox="0 0 1188 173"
    style="enable-background: new 0 0 1188 173" xml:space="preserve" width="1188" height="173">
    <style type="text/css">
        .st0 {
            fill: currentColor;
        }

        .st1 {
            fill: none;
            stroke: currentColor;
            stroke-width: 1;
        }

        .st3 {
            fill: currentColor;
        }
    </style>
    <defs>
        <filter id="Adobe_OpacityMaskFilter" filterUnits="userSpaceOnUse" x="0.7" y="0.4" width="577.5" height="172.1">
            <feColorMatrix type="matrix" values="1 0 0 0 0  0 1 0 0 0  0 0 1 0 0  0 0 0 1 0"></feColorMatrix>
        </filter>
    </defs>
    <mask id="path-2-outside-1_1_" maskUnits="userSpaceOnUse" x="0.7" y="0.4" width="577.5" height="172.1">
        <rect class="st0" x="0.7" y="-0.2" width="578" height="173" fill="#FFFFFF"></rect>
        <path
            d="M51.5,169.1h-8.7c-1.7,0-4.4-0.1-8-0.2c-3.4-0.3-6.3-0.5-8.7-0.5s-5.3,0.2-8.9,0.5c-3.6,0.2-6.3,0.2-8,0.2H1.7v-1.9H4          c4.7,0,8.4-1.1,11-3.3c2.7-2.4,5-6.2,7.1-11.5L71.5,24.6c1.1-2.7,1.6-5.2,1.6-7.5c0-4.1-2.6-6.1-7.8-6.1h-4V9.1h8.9          c1.6,0,4.2,0.2,7.8,0.5c3.6,0.2,6.6,0.2,8.9,0.2s5.3-0.1,8.9-0.2c3.6-0.3,6.2-0.5,7.8-0.5h7.5v1.9h-2.4c-4.5,0-8.1,1.2-10.8,3.5          c-2.7,2.2-5.1,6-7.3,11.3L41.6,153.6c-1.3,3.1-1.9,5.6-1.9,7.5c0,4.1,2.6,6.1,7.8,6.1h4V169.1z M196.1,150.5l4.5,18.6          c-1.9,0-3.8,0-5.6,0c-1.9-0.2-3.3-0.2-4.2-0.2c-1.1,0-2.6,0.1-4.5,0.2c-1.7,0-3.3,0-4.7,0L145.1,26.9L103,136.4          c-2.7,7.4-4,13.2-4,17.6c0,3.8,1,6.9,3.1,9.4c2,2.4,5.1,3.6,9.2,3.8h1.9v1.9h-7.5c-0.9,0-3.2-0.1-6.8-0.2c-3.6-0.3-6.5-0.5-8.7-0.5          c-2.3,0-5.1,0.2-8.2,0.5c-3.1,0.2-5.2,0.2-6.1,0.2h-7.1v-1.9h2.8c6.1,0,11.7-3,16.7-8.9c5.2-6,9.4-13.4,12.7-22.3l43-112.1          c-0.9-4.4-2.3-7.6-4-9.6c-1.7-2.2-4.2-3.3-7.5-3.3h-4.2V9.1h8.7c1.7,0,3.8,0.1,6.3,0.2c2.5,0,4.5,0,6.1,0c1.9,0,3.8,0,5.6,0          c1.9-0.2,3.6-0.2,5.2-0.2l35,137.7l40.4-105c2.7-7.4,4-13.2,4-17.6c0-3.8-1-6.8-3.1-9.2c-2-2.5-5.1-3.8-9.2-4h-2.1V9.1h7.8          c0.9,0,3.2,0.2,6.8,0.5c3.6,0.2,6.6,0.2,8.9,0.2c2.3,0,5.1-0.1,8.2-0.2c3.1-0.3,5.2-0.5,6.1-0.5h6.8v1.9h-2.6          c-11.8,0-21.6,10.4-29.6,31.3L196.1,150.5z M282.3,171.4c-5.2,0-11.8-1.2-20-3.5c-8-2.3-12.8-3.5-14.6-3.5c-3.9,0-6,2.3-6.3,6.8          l-1.6,0.2l-6.8-56.6l1.6-0.5c10.5,36.8,26.4,55.2,47.7,55.2c10.2,0,18.3-2.9,24.4-8.7c6.1-6,9.2-14,9.2-24.2          c0-11.1-7.1-24.6-21.2-40.4l-6.8-7.5C276.6,76.2,271,63.4,271,50.4c0-12.2,4.3-22.6,12.9-31c8.8-8.5,19-12.7,30.8-12.7          c3.6,0,8.7,0.8,15.3,2.3c6.6,1.4,10.6,2.1,12,2.1c3.9,0,5.8-2.4,5.6-7.1l1.6-0.2l8.9,51l-1.4,0.5c-9.9-31.2-23.9-46.8-42.1-46.8          c-8.5,0-15.5,2.7-21.1,8c-5.5,5.3-8.2,12-8.2,20c0,12.4,5.8,25,17.4,37.8l7,8c5,5.6,8.8,10.2,11.3,13.6c2.7,3.3,5.2,7.6,7.5,12.9          c2.4,5.2,3.5,10.2,3.5,15c0,13.8-5,25.1-15,34.1C307,167,295.4,171.4,282.3,171.4z M416.8,169.1h-8.9c-1.6,0-4.1-0.1-7.5-0.2          c-3.4-0.3-6.3-0.5-8.7-0.5c-2.4,0-5.4,0.2-9.2,0.5c-3.6,0.2-6.3,0.2-8,0.2H367v-1.9h2.4c4.5,0,8.1-1.1,10.8-3.3          c2.7-2.4,5.1-6.2,7.3-11.5l54.3-141.2h-17.6c-4.1,0-7.3,0.5-9.6,1.6c-2.4,0.9-5.2,3.4-8.7,7.3c-20.8,24.3-33.4,38.8-37.6,43.5          l-1.2-0.9l33.8-60.9l1.4,0.7c-1.4,4.4,0.2,6.6,4.7,6.6h23c1.4,0,4.7,0.1,9.9,0.2c5.3,0,9.5,0,12.5,0c2.8,0,6.3,0,10.3,0          c4.2-0.2,7.1-0.2,8.5-0.2h22.1c6.1,0,9.6-2.3,10.6-7h1.6l-6.6,61.1h-1.4c-2.2-18.6-4.4-32.9-6.6-42.8c-0.6-3.6-1.6-6-3.1-7.3          c-1.4-1.3-4-1.9-7.8-1.9h-18.6L407,153.6c-1.3,3.1-1.9,5.6-1.9,7.5c0,4.1,2.6,6.1,7.8,6.1h4V169.1z M577.1,169.1h-8          c-1.1,0-3.4-0.1-7-0.2c-3.4-0.3-6.3-0.5-8.5-0.5c-2.5,0-6,0.2-10.3,0.5c-4.2,0.2-6.8,0.2-7.8,0.2h-5.4v-1.9h2.1          c3.9-0.2,7.1-1.6,9.6-4.2c2.5-2.7,3.8-6.1,4-10.3l0.7-28h-67.9l-10.1,13.6c-5.6,7.5-8.5,13.5-8.5,17.9c0,7.4,4,11,12,11h2.4v1.9          H469c-1.7,0-4.7-0.1-8.9-0.2c-4.2-0.3-7.2-0.5-8.9-0.5c-1.3,0-4.1,0.2-8.5,0.5c-4.4,0.2-7.3,0.2-8.7,0.2h-4.9v-1.9h1.4          c5.3,0,10.8-2.4,16.5-7.3c5.5-4.9,12.1-12.5,19.7-22.8L547.7,29l-0.5-20c1.4,0,3.2,0.1,5.4,0.2c2.4,0.2,4.1,0.2,5.2,0.2          c1.3,0,2.8-0.1,4.7-0.2c1.9-0.2,3.4-0.2,4.5-0.2l-2.3,143.3c-0.2,5.2,0.7,8.9,2.6,11.3s4.9,3.5,9.2,3.5h0.7V169.1z M546.6,122.6          l1.4-90.5l-67.7,90.5H546.6z">
        </path>
    </mask>
    <path class="st1"
        d="M51.5,169.1h-8.7c-1.7,0-4.4-0.1-8-0.2c-3.4-0.3-6.3-0.5-8.7-0.5s-5.3,0.2-8.9,0.5c-3.6,0.2-6.3,0.2-8,0.2H1.7        v-1.9H4c4.7,0,8.4-1.1,11-3.3c2.7-2.4,5-6.2,7.1-11.5L71.5,24.6c1.1-2.7,1.6-5.2,1.6-7.5c0-4.1-2.6-6.1-7.8-6.1h-4V9.1h8.9        c1.6,0,4.2,0.2,7.8,0.5c3.6,0.2,6.6,0.2,8.9,0.2s5.3-0.1,8.9-0.2c3.6-0.3,6.2-0.5,7.8-0.5h7.5v1.9h-2.4c-4.5,0-8.1,1.2-10.8,3.5        c-2.7,2.2-5.1,6-7.3,11.3L41.6,153.6c-1.3,3.1-1.9,5.6-1.9,7.5c0,4.1,2.6,6.1,7.8,6.1h4V169.1z M196.1,150.5l4.5,18.6        c-1.9,0-3.8,0-5.6,0c-1.9-0.2-3.3-0.2-4.2-0.2c-1.1,0-2.6,0.1-4.5,0.2c-1.7,0-3.3,0-4.7,0L145.1,26.9L103,136.4        c-2.7,7.4-4,13.2-4,17.6c0,3.8,1,6.9,3.1,9.4c2,2.4,5.1,3.6,9.2,3.8h1.9v1.9h-7.5c-0.9,0-3.2-0.1-6.8-0.2c-3.6-0.3-6.5-0.5-8.7-0.5        c-2.3,0-5.1,0.2-8.2,0.5c-3.1,0.2-5.2,0.2-6.1,0.2h-7.1v-1.9h2.8c6.1,0,11.7-3,16.7-8.9c5.2-6,9.4-13.4,12.7-22.3l43-112.1        c-0.9-4.4-2.3-7.6-4-9.6c-1.7-2.2-4.2-3.3-7.5-3.3h-4.2V9.1h8.7c1.7,0,3.8,0.1,6.3,0.2c2.5,0,4.5,0,6.1,0c1.9,0,3.8,0,5.6,0        c1.9-0.2,3.6-0.2,5.2-0.2l35,137.7l40.4-105c2.7-7.4,4-13.2,4-17.6c0-3.8-1-6.8-3.1-9.2c-2-2.5-5.1-3.8-9.2-4h-2.1V9.1h7.8        c0.9,0,3.2,0.2,6.8,0.5c3.6,0.2,6.6,0.2,8.9,0.2c2.3,0,5.1-0.1,8.2-0.2c3.1-0.3,5.2-0.5,6.1-0.5h6.8v1.9h-2.6        c-11.8,0-21.6,10.4-29.6,31.3L196.1,150.5z M282.3,171.4c-5.2,0-11.8-1.2-20-3.5c-8-2.3-12.8-3.5-14.6-3.5c-3.9,0-6,2.3-6.3,6.8        l-1.6,0.2l-6.8-56.6l1.6-0.5c10.5,36.8,26.4,55.2,47.7,55.2c10.2,0,18.3-2.9,24.4-8.7c6.1-6,9.2-14,9.2-24.2        c0-11.1-7.1-24.6-21.2-40.4l-6.8-7.5C276.6,76.2,271,63.4,271,50.4c0-12.2,4.3-22.6,12.9-31c8.8-8.5,19-12.7,30.8-12.7        c3.6,0,8.7,0.8,15.3,2.3c6.6,1.4,10.6,2.1,12,2.1c3.9,0,5.8-2.4,5.6-7.1l1.6-0.2l8.9,51l-1.4,0.5c-9.9-31.2-23.9-46.8-42.1-46.8        c-8.5,0-15.5,2.7-21.1,8c-5.5,5.3-8.2,12-8.2,20c0,12.4,5.8,25,17.4,37.8l7,8c5,5.6,8.8,10.2,11.3,13.6c2.7,3.3,5.2,7.6,7.5,12.9        c2.4,5.2,3.5,10.2,3.5,15c0,13.8-5,25.1-15,34.1C307,167,295.4,171.4,282.3,171.4z M416.8,169.1h-8.9c-1.6,0-4.1-0.1-7.5-0.2        c-3.4-0.3-6.3-0.5-8.7-0.5c-2.4,0-5.4,0.2-9.2,0.5c-3.6,0.2-6.3,0.2-8,0.2H367v-1.9h2.4c4.5,0,8.1-1.1,10.8-3.3        c2.7-2.4,5.1-6.2,7.3-11.5l54.3-141.2h-17.6c-4.1,0-7.3,0.5-9.6,1.6c-2.4,0.9-5.2,3.4-8.7,7.3c-20.8,24.3-33.4,38.8-37.6,43.5        l-1.2-0.9l33.8-60.9l1.4,0.7c-1.4,4.4,0.2,6.6,4.7,6.6h23c1.4,0,4.7,0.1,9.9,0.2c5.3,0,9.5,0,12.5,0c2.8,0,6.3,0,10.3,0        c4.2-0.2,7.1-0.2,8.5-0.2h22.1c6.1,0,9.6-2.3,10.6-7h1.6l-6.6,61.1h-1.4c-2.2-18.6-4.4-32.9-6.6-42.8c-0.6-3.6-1.6-6-3.1-7.3        c-1.4-1.3-4-1.9-7.8-1.9h-18.6L407,153.6c-1.3,3.1-1.9,5.6-1.9,7.5c0,4.1,2.6,6.1,7.8,6.1h4V169.1z M577.1,169.1h-8        c-1.1,0-3.4-0.1-7-0.2c-3.4-0.3-6.3-0.5-8.5-0.5c-2.5,0-6,0.2-10.3,0.5c-4.2,0.2-6.8,0.2-7.8,0.2h-5.4v-1.9h2.1        c3.9-0.2,7.1-1.6,9.6-4.2c2.5-2.7,3.8-6.1,4-10.3l0.7-28h-67.9l-10.1,13.6c-5.6,7.5-8.5,13.5-8.5,17.9c0,7.4,4,11,12,11h2.4v1.9H469        c-1.7,0-4.7-0.1-8.9-0.2c-4.2-0.3-7.2-0.5-8.9-0.5c-1.3,0-4.1,0.2-8.5,0.5c-4.4,0.2-7.3,0.2-8.7,0.2h-4.9v-1.9h1.4        c5.3,0,10.8-2.4,16.5-7.3c5.5-4.9,12.1-12.5,19.7-22.8L547.7,29l-0.5-20c1.4,0,3.2,0.1,5.4,0.2c2.4,0.2,4.1,0.2,5.2,0.2        c1.3,0,2.8-0.1,4.7-0.2c1.9-0.2,3.4-0.2,4.5-0.2l-2.3,143.3c-0.2,5.2,0.7,8.9,2.6,11.3s4.9,3.5,9.2,3.5h0.7V169.1z M546.6,122.6        l1.4-90.5l-67.7,90.5H546.6z"
        stroke="#FFFFFF" fill="none"></path>
    <g>
        <g class="st2">
            <path class="st3"
                d="M660.9,1.8c19.3,0,35.5,5,48.3,14.7c11.3,8.7,19.8,21.2,24.6,36.3h-19.1v0c-3.4-7.4-8.5-16.7-17.4-23.8            c-9.4-7.5-21.4-11.1-36.6-11.1c-17.9,0-32.9,6.1-43.4,17.7c-10.7,11.8-16.4,28.9-16.4,49.4c0,20.3,5.6,37.4,16.1,49.4            c10.5,12,25.5,18.3,43.3,18.3c17.8,0,32.5-5.9,42.7-17.2c8.3-9.2,13.3-21.5,14.1-34.9l0.1-1.1h-1.1h-62.8V83.1h80.5v82.8H716            l0-12.6l0.2-9.9l0.1-3.3l-1.9,2.8c-4.6,6.8-11.6,13-19.7,17.4c-10.6,5.8-23,8.8-36.7,8.8c-22,0-41.8-8-55.7-22.6            c-14.5-15.1-22.1-36.2-22.1-60.9c0-23.6,7.8-44.9,21.9-59.9C616.7,10.1,637,1.8,660.9,1.8 M660.9,0.8c-24.9,0-45.4,9-59.6,24.1            c-14.2,15.1-22.2,36.3-22.2,60.6c0,25.8,8.3,46.9,22.4,61.6c14.1,14.7,33.8,22.9,56.4,22.9c30.9,0,49.2-14.9,57.2-26.6l-0.2,9.9            v13.6h19.8V82.1h-82.5v18.7h63.8c-0.7,12-5.1,24.6-13.9,34.2c-9,9.9-22.7,16.9-42,16.9c-17.9,0-32.4-6.5-42.5-18            c-10.1-11.5-15.9-28.2-15.9-48.7c0-21,5.9-37.5,16.2-48.7C628.2,25.1,642.9,19,660.7,19c16.6,0,27.9,4.4,36,10.9            c8.1,6.5,13.2,15,17.1,23.4l0.3,0.6h21.1l-0.4-1.3c-4.5-14.6-12.7-27.5-24.9-36.8C697.6,6.5,681.4,0.8,660.9,0.8L660.9,0.8z"
                fill="#FFFFFF"></path>
        </g>
        <g class="st2">
            <path class="st3"
                d="M797,6c17.4,0,31,1.5,41.3,8.8l0,0l0,0c11.9,7.6,18,19.7,18,35.8c0,12.5-4,22.7-11.8,30.4            c-6.7,6.6-16.1,11.1-27.3,13.2c-0.3,0.1-0.7,0.1-1,0.2l-1.4,0.2l0.7,1.3l0.2,0.3l0.4,0.6c8.7,14.8,19.1,31.9,29.3,48.4l0.3,0.4            c4.1,6.7,8,13.1,11.8,19.2h-20.8l-39.3-67.2l-0.3-0.5h-0.6h-25.9h-1v1v66.7h-17.1V6H797 M770.5,82.4h1h25.3            c12.3,0,21.9-2.3,28.4-6.8c7.8-5.5,11.5-13.1,11.5-24.1c0-6.6-1.2-11.9-3.8-16.2c-2.5-4.2-6.1-7.3-11.1-9.6            c-6.2-3-14.6-4.5-25-4.5h-25.3h-1v1v59.2V82.4 M797,5h-45.7v160.9h19.1V98.1h25.9l39.6,67.7h23.2c-0.2-0.3-0.4-0.7-0.6-1            c-3.9-6.4-8.1-13.2-12.3-20.2c-10-16.3-20.6-33.6-29.3-48.3c-0.2-0.3-0.4-0.6-0.5-0.9c0.4-0.1,0.7-0.1,1.1-0.2            c21-3.9,39.9-17.1,39.9-44.6c0-16.2-6.1-28.8-18.5-36.7C827.8,6.1,813.2,5,797,5L797,5z M771.5,81.4V22.2h25.3            c10.5,0,18.6,1.6,24.5,4.4l0,0c4.7,2.2,8.2,5.2,10.6,9.2c2.4,4.1,3.7,9.2,3.7,15.7c0,11.2-3.9,18.3-11,23.3            c-6.3,4.3-15.5,6.6-27.8,6.6H771.5L771.5,81.4z"
                fill="#FFFFFF"></path>
        </g>
        <g class="st2">
            <path class="st3"
                d="M958.9,6l64,158.9h-18.1l-20-50l-0.3-0.6h-0.7h-75.6h-0.7l-0.3,0.6l-19.8,50h-16.7L935.5,6H958.9 M920.4,84.4            l-5.7,13.9l-0.6,1.4h1.5h60.7h1.5l-0.5-1.4l-6.2-16c-3.3-8.6-6.7-17.2-10-25.5c-4.5-11.4-9.2-23.1-13.6-35.1l-0.9-2.5l-1,2.5            c-3.9,10.2-8.1,20.6-12.9,32.2l-0.7,1.8C927.6,66.2,923.5,76.2,920.4,84.4 M959.6,5h-24.8l-65.5,160.9h18.9l20-50.6h75.6            l20.2,50.6h20.2L959.6,5L959.6,5z M915.6,98.7l5.7-13.9l0,0c3.1-8.2,7.2-18.1,11.5-28.7l0.7-1.8c4.3-10.6,8.9-21.7,12.9-32.2            c4.4,12,9,23.6,13.6,35.1c3.4,8.5,6.8,17,10,25.5l6.2,16H915.6L915.6,98.7z"
                fill="#FFFFFF"></path>
        </g>
        <g class="st2">
            <path class="st3"
                d="M1185.3,5v160.9h-19.1V84.4c0-8.2,0.2-20.9,0.3-34.2l0-2.4l0-0.8c0.1-8.2,0.2-15.9,0.3-21.8l0.1-7.1l-2,6.8            c-7,23.5-12.9,42.4-18,57.7l-27.7,83.2h-24.3l-31.9-106c-2.5-8.2-4.5-15.5-6.4-22.8l-0.3-1.1c-1-3.8-2-7.4-2.9-10.8l-2.1-7.3            l0.1,7.6c0.1,9.1,0.3,27.8,0.3,50.2v90.2h-19.1V5h33.1l29.2,95.9l0,0.1l0.1,0.1c1.7,5.3,3.8,12.9,6.1,20.9l0.4,1.4            c2.3,8.1,4.3,15.2,6.2,21.3l0.9,3.1l1-3.1c1.8-5.9,4.1-13.5,6.1-20.2l0.3-0.9l0.4-1.3c2.8-9.4,5.2-17.6,7-22.8l0,0l0-0.1L1154.1,5            H1185.3 M1186.3,4h-33l-31,95.2c0,0,0,0,0,0c-1.8,5.3-4.4,14-7.1,23c-0.2,0.7-0.4,1.4-0.6,2.2c-2.1,7.2-4.3,14.4-6.1,20.1            c-1.9-6.2-4.1-13.8-6.2-21.2l-0.4-1.4c-2.2-8-4.4-15.7-6.1-21c0,0,0,0,0,0L1066.4,4h-34.8v162.9h21.1V75.6            c0-19.1-0.2-37.1-0.3-50.2c0.9,3.4,1.9,6.9,2.9,10.8l0.3,1.1c1.8,6.8,3.8,14.3,6.4,22.9l32.2,106.7h25.8l27.9-83.9            c7.1-21.1,14.4-45.4,18-57.8c-0.1,6.1-0.2,14.2-0.3,22.6l0,2.4c-0.2,12.6-0.3,25.7-0.3,34.2v82.4h21.1V4L1186.3,4z"
                fill="#FFFFFF"></path>
        </g>
    </g>
</svg>